<svg width="175" height="175" viewBox="0 0 175 175" fill="none" xmlns="http://www.w3.org/2000/svg">
<path d="M110.688 90.5625C111.563 89.6875 112 88.6667 112 87.5C112 86.3333 111.563 85.3125 110.688 84.4375L86.1875 59.9375C84.7292 58.4792 83.125 58.1146 81.375 58.8438C79.625 59.5729 78.75 60.9583 78.75 63L78.75 112C78.75 114.042 79.625 115.427 81.375 116.156C83.125 116.885 84.7292 116.521 86.1875 115.062L110.688 90.5625ZM175 87.5C175 99.6042 172.702 110.979 168.105 121.625C163.508 132.271 157.275 141.531 149.406 149.406C141.531 157.281 132.271 163.514 121.625 168.105C110.979 172.696 99.6042 174.994 87.5 175C75.3958 175 64.0208 172.702 53.375 168.105C42.7292 163.508 33.4688 157.275 25.5938 149.406C17.7188 141.531 11.4858 132.271 6.895 121.625C2.30417 110.979 0.00583423 99.6042 1.04343e-06 87.5C1.18777e-06 75.3958 2.29834 64.0208 6.895 53.375C11.4917 42.7292 17.7246 33.4688 25.5938 25.5938C33.4688 17.7188 42.7292 11.4829 53.375 6.88626C64.0208 2.2896 75.3958 -0.00584322 87.5 1.04343e-06C99.6042 1.18777e-06 110.979 2.29834 121.625 6.89501C132.271 11.4917 141.531 17.7246 149.406 25.5938C157.281 33.4688 163.517 42.7292 168.114 53.375C172.71 64.0208 175.006 75.3958 175 87.5ZM157.5 87.5C157.5 67.9583 150.719 51.4063 137.156 37.8438C123.594 24.2813 107.042 17.5 87.5 17.5C67.9583 17.5 51.4062 24.2813 37.8437 37.8438C24.2812 51.4063 17.5 67.9583 17.5 87.5C17.5 107.042 24.2812 123.594 37.8437 137.156C51.4062 150.719 67.9583 157.5 87.5 157.5C107.042 157.5 123.594 150.719 137.156 137.156C150.719 123.594 157.5 107.042 157.5 87.5Z" fill="white"/>
</svg>
